# MagicaVoxel @ Ephtracy

# group
o 

# material
mtllib Finish.mtl
usemtl palette

# normals
vn -1 0 0
vn 1 0 0
vn 0 0 1
vn 0 0 -1
vn 0 -1 0
vn 0 1 0

# texcoords
vt 0.0292969 0.5
vt 0.958984 0.5
vt 0.994141 0.5

# verts
v -2 0 0.2
v -2 0 -0.2
v -2 5.2 0.2
v -2 5.2 -0.2
v 1.6 0 0.2
v 1.6 0 -0.2
v 1.6 3.6 0.2
v 1.6 3.6 -0.2
v -1.6 0 0.2
v -1.6 0 -0.2
v -1.6 3.6 0.2
v -1.6 3.6 -0.2
v 2 0 0.2
v 2 0 -0.2
v 2 5.2 0.2
v 2 5.2 -0.2
v -2 0 0.2
v -2 5.2 0.2
v -1.6 0 0.2
v -1.6 3.6 0.2
v -1.6 4 0.2
v -1.6 4.4 0.2
v -1.6 4.8 0.2
v -1.6 5.2 0.2
v -1.2 3.6 0.2
v -1.2 4 0.2
v -1.2 4.4 0.2
v -1.2 4.8 0.2
v -1.2 5.2 0.2
v -0.8 3.6 0.2
v -0.8 4 0.2
v -0.8 4.4 0.2
v -0.8 4.8 0.2
v -0.8 5.2 0.2
v -0.4 3.6 0.2
v -0.4 4 0.2
v -0.4 4.4 0.2
v -0.4 4.8 0.2
v -0.4 5.2 0.2
v 2.38419e-007 3.6 0.2
v 2.38419e-007 4 0.2
v 2.38419e-007 4.4 0.2
v 2.38419e-007 4.8 0.2
v 2.38419e-007 5.2 0.2
v 0.4 3.6 0.2
v 0.4 4 0.2
v 0.4 4.4 0.2
v 0.4 4.8 0.2
v 0.4 5.2 0.2
v 0.8 3.6 0.2
v 0.8 4 0.2
v 0.8 4.4 0.2
v 0.8 4.8 0.2
v 0.8 5.2 0.2
v 1.2 3.6 0.2
v 1.2 4 0.2
v 1.2 4.4 0.2
v 1.2 4.8 0.2
v 1.2 5.2 0.2
v 1.6 0 0.2
v 1.6 3.6 0.2
v 1.6 4 0.2
v 1.6 4.4 0.2
v 1.6 4.8 0.2
v 1.6 5.2 0.2
v 2 0 0.2
v 2 5.2 0.2
v -2 0 -0.2
v -2 5.2 -0.2
v -1.6 0 -0.2
v -1.6 3.6 -0.2
v -1.6 4 -0.2
v -1.6 4.4 -0.2
v -1.6 4.8 -0.2
v -1.6 5.2 -0.2
v -1.2 3.6 -0.2
v -1.2 4 -0.2
v -1.2 4.4 -0.2
v -1.2 4.8 -0.2
v -1.2 5.2 -0.2
v -0.8 3.6 -0.2
v -0.8 4 -0.2
v -0.8 4.4 -0.2
v -0.8 4.8 -0.2
v -0.8 5.2 -0.2
v -0.4 3.6 -0.2
v -0.4 4 -0.2
v -0.4 4.4 -0.2
v -0.4 4.8 -0.2
v -0.4 5.2 -0.2
v 2.38419e-007 3.6 -0.2
v 2.38419e-007 4 -0.2
v 2.38419e-007 4.4 -0.2
v 2.38419e-007 4.8 -0.2
v 2.38419e-007 5.2 -0.2
v 0.4 3.6 -0.2
v 0.4 4 -0.2
v 0.4 4.4 -0.2
v 0.4 4.8 -0.2
v 0.4 5.2 -0.2
v 0.8 3.6 -0.2
v 0.8 4 -0.2
v 0.8 4.4 -0.2
v 0.8 4.8 -0.2
v 0.8 5.2 -0.2
v 1.2 3.6 -0.2
v 1.2 4 -0.2
v 1.2 4.4 -0.2
v 1.2 4.8 -0.2
v 1.2 5.2 -0.2
v 1.6 0 -0.2
v 1.6 3.6 -0.2
v 1.6 4 -0.2
v 1.6 4.4 -0.2
v 1.6 4.8 -0.2
v 1.6 5.2 -0.2
v 2 0 -0.2
v 2 5.2 -0.2
v -2 0 0.2
v -1.6 0 0.2
v 1.6 0 0.2
v 2 0 0.2
v -2 0 -0.2
v -1.6 0 -0.2
v 1.6 0 -0.2
v 2 0 -0.2
v -1.6 3.6 0.2
v -1.2 3.6 0.2
v -0.8 3.6 0.2
v -0.4 3.6 0.2
v 2.38419e-007 3.6 0.2
v 0.4 3.6 0.2
v 0.8 3.6 0.2
v 1.2 3.6 0.2
v 1.6 3.6 0.2
v -1.6 3.6 -0.2
v -1.2 3.6 -0.2
v -0.8 3.6 -0.2
v -0.4 3.6 -0.2
v 2.38419e-007 3.6 -0.2
v 0.4 3.6 -0.2
v 0.8 3.6 -0.2
v 1.2 3.6 -0.2
v 1.6 3.6 -0.2
v -2 5.2 0.2
v -1.6 5.2 0.2
v -1.2 5.2 0.2
v -0.8 5.2 0.2
v -0.4 5.2 0.2
v 2.38419e-007 5.2 0.2
v 0.4 5.2 0.2
v 0.8 5.2 0.2
v 1.2 5.2 0.2
v 1.6 5.2 0.2
v 2 5.2 0.2
v -2 5.2 -0.2
v -1.6 5.2 -0.2
v -1.2 5.2 -0.2
v -0.8 5.2 -0.2
v -0.4 5.2 -0.2
v 2.38419e-007 5.2 -0.2
v 0.4 5.2 -0.2
v 0.8 5.2 -0.2
v 1.2 5.2 -0.2
v 1.6 5.2 -0.2
v 2 5.2 -0.2

# faces
f 3/1/1 2/1/1 1/1/1
f 4/1/1 2/1/1 3/1/1
f 7/1/1 6/1/1 5/1/1
f 8/1/1 6/1/1 7/1/1
f 9/1/2 10/1/2 11/1/2
f 11/1/2 10/1/2 12/1/2
f 13/1/2 14/1/2 15/1/2
f 15/1/2 14/1/2 16/1/2
f 19/1/3 18/1/3 17/1/3
f 20/1/3 18/1/3 19/1/3
f 21/1/3 18/1/3 20/1/3
f 22/1/3 18/1/3 21/1/3
f 23/1/3 18/1/3 22/1/3
f 24/1/3 18/1/3 23/1/3
f 25/2/3 21/2/3 20/2/3
f 26/3/3 22/3/3 21/3/3
f 26/2/3 21/2/3 25/2/3
f 27/2/3 23/2/3 22/2/3
f 27/3/3 22/3/3 26/3/3
f 28/3/3 24/3/3 23/3/3
f 28/2/3 23/2/3 27/2/3
f 29/3/3 24/3/3 28/3/3
f 30/3/3 26/3/3 25/3/3
f 31/2/3 27/2/3 26/2/3
f 31/3/3 26/3/3 30/3/3
f 32/3/3 28/3/3 27/3/3
f 32/2/3 27/2/3 31/2/3
f 33/2/3 29/2/3 28/2/3
f 33/3/3 28/3/3 32/3/3
f 34/2/3 29/2/3 33/2/3
f 35/2/3 31/2/3 30/2/3
f 36/3/3 32/3/3 31/3/3
f 36/2/3 31/2/3 35/2/3
f 37/2/3 33/2/3 32/2/3
f 37/3/3 32/3/3 36/3/3
f 38/3/3 34/3/3 33/3/3
f 38/2/3 33/2/3 37/2/3
f 39/3/3 34/3/3 38/3/3
f 40/3/3 36/3/3 35/3/3
f 41/2/3 37/2/3 36/2/3
f 41/3/3 36/3/3 40/3/3
f 42/3/3 38/3/3 37/3/3
f 42/2/3 37/2/3 41/2/3
f 43/2/3 39/2/3 38/2/3
f 43/3/3 38/3/3 42/3/3
f 44/2/3 39/2/3 43/2/3
f 45/2/3 41/2/3 40/2/3
f 46/3/3 42/3/3 41/3/3
f 46/2/3 41/2/3 45/2/3
f 47/2/3 43/2/3 42/2/3
f 47/3/3 42/3/3 46/3/3
f 48/3/3 44/3/3 43/3/3
f 48/2/3 43/2/3 47/2/3
f 49/3/3 44/3/3 48/3/3
f 50/3/3 46/3/3 45/3/3
f 51/2/3 47/2/3 46/2/3
f 51/3/3 46/3/3 50/3/3
f 52/3/3 48/3/3 47/3/3
f 52/2/3 47/2/3 51/2/3
f 53/2/3 49/2/3 48/2/3
f 53/3/3 48/3/3 52/3/3
f 54/2/3 49/2/3 53/2/3
f 55/2/3 51/2/3 50/2/3
f 56/3/3 52/3/3 51/3/3
f 56/2/3 51/2/3 55/2/3
f 57/2/3 53/2/3 52/2/3
f 57/3/3 52/3/3 56/3/3
f 58/3/3 54/3/3 53/3/3
f 58/2/3 53/2/3 57/2/3
f 59/3/3 54/3/3 58/3/3
f 61/3/3 56/3/3 55/3/3
f 62/2/3 57/2/3 56/2/3
f 62/3/3 56/3/3 61/3/3
f 63/3/3 58/3/3 57/3/3
f 63/2/3 57/2/3 62/2/3
f 64/2/3 59/2/3 58/2/3
f 64/3/3 58/3/3 63/3/3
f 65/2/3 59/2/3 64/2/3
f 66/1/3 61/1/3 60/1/3
f 66/1/3 62/1/3 61/1/3
f 66/1/3 65/1/3 64/1/3
f 66/1/3 64/1/3 63/1/3
f 66/1/3 63/1/3 62/1/3
f 67/1/3 65/1/3 66/1/3
f 68/1/4 69/1/4 70/1/4
f 70/1/4 69/1/4 71/1/4
f 71/1/4 69/1/4 72/1/4
f 72/1/4 69/1/4 73/1/4
f 73/1/4 69/1/4 74/1/4
f 74/1/4 69/1/4 75/1/4
f 71/2/4 72/2/4 76/2/4
f 72/3/4 73/3/4 77/3/4
f 76/2/4 72/2/4 77/2/4
f 73/2/4 74/2/4 78/2/4
f 77/3/4 73/3/4 78/3/4
f 74/3/4 75/3/4 79/3/4
f 78/2/4 74/2/4 79/2/4
f 79/3/4 75/3/4 80/3/4
f 76/3/4 77/3/4 81/3/4
f 77/2/4 78/2/4 82/2/4
f 81/3/4 77/3/4 82/3/4
f 78/3/4 79/3/4 83/3/4
f 82/2/4 78/2/4 83/2/4
f 79/2/4 80/2/4 84/2/4
f 83/3/4 79/3/4 84/3/4
f 84/2/4 80/2/4 85/2/4
f 81/2/4 82/2/4 86/2/4
f 82/3/4 83/3/4 87/3/4
f 86/2/4 82/2/4 87/2/4
f 83/2/4 84/2/4 88/2/4
f 87/3/4 83/3/4 88/3/4
f 84/3/4 85/3/4 89/3/4
f 88/2/4 84/2/4 89/2/4
f 89/3/4 85/3/4 90/3/4
f 86/3/4 87/3/4 91/3/4
f 87/2/4 88/2/4 92/2/4
f 91/3/4 87/3/4 92/3/4
f 88/3/4 89/3/4 93/3/4
f 92/2/4 88/2/4 93/2/4
f 89/2/4 90/2/4 94/2/4
f 93/3/4 89/3/4 94/3/4
f 94/2/4 90/2/4 95/2/4
f 91/2/4 92/2/4 96/2/4
f 92/3/4 93/3/4 97/3/4
f 96/2/4 92/2/4 97/2/4
f 93/2/4 94/2/4 98/2/4
f 97/3/4 93/3/4 98/3/4
f 94/3/4 95/3/4 99/3/4
f 98/2/4 94/2/4 99/2/4
f 99/3/4 95/3/4 100/3/4
f 96/3/4 97/3/4 101/3/4
f 97/2/4 98/2/4 102/2/4
f 101/3/4 97/3/4 102/3/4
f 98/3/4 99/3/4 103/3/4
f 102/2/4 98/2/4 103/2/4
f 99/2/4 100/2/4 104/2/4
f 103/3/4 99/3/4 104/3/4
f 104/2/4 100/2/4 105/2/4
f 101/2/4 102/2/4 106/2/4
f 102/3/4 103/3/4 107/3/4
f 106/2/4 102/2/4 107/2/4
f 103/2/4 104/2/4 108/2/4
f 107/3/4 103/3/4 108/3/4
f 104/3/4 105/3/4 109/3/4
f 108/2/4 104/2/4 109/2/4
f 109/3/4 105/3/4 110/3/4
f 106/3/4 107/3/4 112/3/4
f 107/2/4 108/2/4 113/2/4
f 112/3/4 107/3/4 113/3/4
f 108/3/4 109/3/4 114/3/4
f 113/2/4 108/2/4 114/2/4
f 109/2/4 110/2/4 115/2/4
f 114/3/4 109/3/4 115/3/4
f 115/2/4 110/2/4 116/2/4
f 111/1/4 112/1/4 117/1/4
f 112/1/4 113/1/4 117/1/4
f 115/1/4 116/1/4 117/1/4
f 114/1/4 115/1/4 117/1/4
f 113/1/4 114/1/4 117/1/4
f 117/1/4 116/1/4 118/1/4
f 123/1/5 120/1/5 119/1/5
f 124/1/5 120/1/5 123/1/5
f 125/1/5 122/1/5 121/1/5
f 126/1/5 122/1/5 125/1/5
f 136/2/5 128/2/5 127/2/5
f 137/3/5 129/3/5 128/3/5
f 137/2/5 128/2/5 136/2/5
f 138/2/5 130/2/5 129/2/5
f 138/3/5 129/3/5 137/3/5
f 139/3/5 131/3/5 130/3/5
f 139/2/5 130/2/5 138/2/5
f 140/2/5 132/2/5 131/2/5
f 140/3/5 131/3/5 139/3/5
f 141/3/5 133/3/5 132/3/5
f 141/2/5 132/2/5 140/2/5
f 142/2/5 134/2/5 133/2/5
f 142/3/5 133/3/5 141/3/5
f 143/3/5 135/3/5 134/3/5
f 143/2/5 134/2/5 142/2/5
f 144/3/5 135/3/5 143/3/5
f 145/1/6 146/1/6 156/1/6
f 146/3/6 147/3/6 157/3/6
f 156/1/6 146/1/6 157/1/6
f 147/2/6 148/2/6 158/2/6
f 157/3/6 147/3/6 158/3/6
f 148/3/6 149/3/6 159/3/6
f 158/2/6 148/2/6 159/2/6
f 149/2/6 150/2/6 160/2/6
f 159/3/6 149/3/6 160/3/6
f 150/3/6 151/3/6 161/3/6
f 160/2/6 150/2/6 161/2/6
f 151/2/6 152/2/6 162/2/6
f 161/3/6 151/3/6 162/3/6
f 152/3/6 153/3/6 163/3/6
f 162/2/6 152/2/6 163/2/6
f 153/2/6 154/2/6 164/2/6
f 163/3/6 153/3/6 164/3/6
f 154/1/6 155/1/6 165/1/6
f 164/2/6 154/2/6 165/2/6
f 165/1/6 155/1/6 166/1/6
